<?xml version="1.0" encoding="utf-8"?>
<!-- Generator: Adobe Illustrator 24.1.2, SVG Export Plug-In . SVG Version: 6.00 Build 0)  -->
<svg version="1.1" xmlns="http://www.w3.org/2000/svg" xmlns:xlink="http://www.w3.org/1999/xlink" x="0px" y="0px"
	 viewBox="0 0 198.54 95.97" style="enable-background:new 0 0 198.54 95.97;" xml:space="preserve">
<style type="text/css">
	.st0{fill:#E04F39;}
	.st1{display:none;}
	.st2{display:inline;fill:#E04F39;}
	.st3{display:inline;fill:#FFFFFF;}
</style>
<g id="Camada_7">
	<g>
		<circle class="st0" cx="47.14" cy="49.21" r="22.15"/>
		<circle class="st0" cx="99.42" cy="49.21" r="22.15"/>
		<circle class="st0" cx="151.7" cy="49.21" r="22.15"/>
		<rect x="0.07" y="0.11" class="st0" width="17.07" height="71.25"/>
		<rect x="181.42" y="0.11" class="st0" width="17.07" height="71.25"/>
	</g>
</g>
<g id="Camada_8" class="st1">
	<circle class="st2" cx="99.1" cy="49.18" r="22.15"/>
	<rect x="128.83" y="0.08" class="st2" width="17.07" height="71.25"/>
</g>
<g id="Camada_9" class="st1">
	<circle class="st2" cx="99.34" cy="49.15" r="22.15"/>
	
		<rect x="104.28" y="51.79" transform="matrix(-1.836970e-16 1 -1 -1.836970e-16 200.2259 -25.3978)" class="st3" width="17.07" height="71.25"/>
</g>
<g id="Camada_10" class="st1">
	<circle class="st2" cx="99.46" cy="49.34" r="22.15"/>
	<rect x="52.39" y="0.24" class="st2" width="17.07" height="71.25"/>
</g>
<g id="Camada_6" class="st1">
	<circle class="st2" cx="99.37" cy="49.15" r="22.15"/>
	
		<rect x="77.36" y="-24.74" transform="matrix(6.123234e-17 -1 1 6.123234e-17 75.0109 96.7813)" class="st2" width="17.07" height="71.25"/>
</g>
</svg>
