<svg id="figura" xmlns="http://www.w3.org/2000/svg" viewBox="0 0 93.54 10.72"><defs><style>.cls-1{fill:#e04f39;}.cls-2{fill:none;}</style></defs><path class="cls-1" d="M11.46,2.66V4.71A1.43,1.43,0,0,0,9.65,6.09V8.82H7.84v-6H9.65V3.86A1.81,1.81,0,0,1,11.46,2.66Z"/><path class="cls-1" d="M18.33,2.77v8H16.51V7.91a2.33,2.33,0,0,1-1.8.69,2.93,2.93,0,0,1-2.89-3,2.94,2.94,0,0,1,2.89-3,2.33,2.33,0,0,1,1.8.69V2.77ZM16.51,5.61a1.34,1.34,0,0,0-1.43-1.39,1.34,1.34,0,0,0-1.44,1.39A1.33,1.33,0,0,0,15.08,7,1.33,1.33,0,0,0,16.51,5.61Z"/><path class="cls-1" d="M25.37,2.78v6H23.56V8.25A2.07,2.07,0,0,1,21.83,9a2.26,2.26,0,0,1-2.26-2.5V2.78h1.81V6.22a1,1,0,0,0,1.06,1.1c.66,0,1.12-.38,1.12-1.24V2.78Z"/><path class="cls-1" d="M26.52,1.16a1.09,1.09,0,0,1,2.18,0,1.09,1.09,0,0,1-2.18,0Zm.18,1.62h1.81v6H26.7Z"/><path class="cls-1" d="M51.52,2.78v6H49.71V8.25A2.05,2.05,0,0,1,48,9a2.26,2.26,0,0,1-2.26-2.5V2.78h1.82V6.22a1,1,0,0,0,1.05,1.1c.66,0,1.12-.38,1.12-1.24V2.78Z"/><path class="cls-1" d="M56.48,2.66V4.71a1.43,1.43,0,0,0-1.81,1.38V8.82H52.85v-6h1.82V3.86A1.81,1.81,0,0,1,56.48,2.66Z"/><path class="cls-1" d="M67.69,0h1.82V8.82H67.69Z"/><path class="cls-1" d="M70.53,5.8A3.21,3.21,0,1,1,73.74,9,3.17,3.17,0,0,1,70.53,5.8Zm4.6,0a1.39,1.39,0,1,0-2.78,0,1.39,1.39,0,1,0,2.78,0Z"/><path class="cls-1" d="M77.66,5.8a3.13,3.13,0,0,1,3.21-3.19A2.92,2.92,0,0,1,83.47,4l-1.58.92a1.18,1.18,0,0,0-1-.49,1.33,1.33,0,0,0-1.36,1.4,1.33,1.33,0,0,0,1.36,1.4,1.08,1.08,0,0,0,.87-.3l1.61.92A3,3,0,0,1,80.87,9,3.13,3.13,0,0,1,77.66,5.8Z"/><path class="cls-1" d="M91.73,0h1.81V8.82H91.73Z"/><path class="cls-2" d="M87.09,4.37A1.36,1.36,0,0,0,85.7,5.8a1.39,1.39,0,1,0,2.78,0A1.36,1.36,0,0,0,87.09,4.37Z"/><path class="cls-1" d="M89,2.71v.51a3.23,3.23,0,0,0-1.89-.61,3.19,3.19,0,1,0,0,6.38A3.23,3.23,0,0,0,89,8.38v.45h1.31V2.71ZM87.09,7.23A1.36,1.36,0,0,1,85.7,5.8a1.39,1.39,0,1,1,2.78,0A1.36,1.36,0,0,1,87.09,7.23Z"/><path class="cls-1" d="M32.14,4.52V6.66c0,.52.45.57,1.24.52V8.82c-2.36.24-3.05-.47-3.05-2.16V4.52h-1V2.78h1V1.63l1.81-.54V2.78h1.24V4.52Z"/><path class="cls-1" d="M41.7,2"/><path class="cls-1" d="M43.41,1.09V2.78h1.25V4.52H43.41V6.66c0,.52.45.57,1.25.52V8.82c-2.37.24-3.06-.47-3.06-2.16V4.52h-1V2.78h1V1.63Z"/><path class="cls-2" d="M60,4.37A1.36,1.36,0,0,0,58.62,5.8a1.39,1.39,0,1,0,2.78,0A1.36,1.36,0,0,0,60,4.37Z"/><path class="cls-1" d="M61.9,2.71v.51A3.23,3.23,0,0,0,60,2.61,3.19,3.19,0,1,0,60,9a3.23,3.23,0,0,0,1.89-.61v.45h1.32V2.71ZM60,7.23A1.36,1.36,0,0,1,58.62,5.8a1.39,1.39,0,1,1,2.78,0A1.36,1.36,0,0,1,60,7.23Z"/><path class="cls-2" d="M3.2,4.37A1.36,1.36,0,0,0,1.81,5.8,1.36,1.36,0,0,0,3.2,7.23,1.36,1.36,0,0,0,4.59,5.8,1.36,1.36,0,0,0,3.2,4.37Z"/><path class="cls-1" d="M5.09,2.71v.51A3.23,3.23,0,0,0,3.2,2.61,3.19,3.19,0,1,0,3.2,9a3.23,3.23,0,0,0,1.89-.61v.45H6.41V2.71ZM3.2,7.23A1.36,1.36,0,0,1,1.81,5.8,1.36,1.36,0,0,1,3.2,4.37,1.36,1.36,0,0,1,4.59,5.8,1.36,1.36,0,0,1,3.2,7.23Z"/><path class="cls-1" d="M40.27,5.8A3.05,3.05,0,0,0,37.2,2.61,3.09,3.09,0,0,0,34,5.8,3.12,3.12,0,0,0,37.34,9a3,3,0,0,0,2.38-1l-1.51-.89a1.27,1.27,0,0,1-.85.22,1.38,1.38,0,0,1-1.45-.84H40.2A3.48,3.48,0,0,0,40.27,5.8Zm-1.8-.33h-2.7a2.81,2.81,0,0,1,.1-.31v0h0a1.4,1.4,0,0,1,1.31-.91,1.35,1.35,0,0,1,1.27.91h0v0a1.35,1.35,0,0,1,0,.29h0Z"/></svg>